<svg xmlns="http://www.w3.org/2000/svg" xmlns:xlink="https://www.w3.org/1999/xlink" style="display: none;">
<!--Monitor Icon-->
<symbol id="monitor" viewBox="0 0 24 24"  fill="none"  stroke="currentColor"  stroke-width="2"  stroke-linecap="round"  stroke-linejoin="round"  class="icon icon-tabler icons-tabler-outline icon-tabler-device-desktop"><path stroke="none" d="M0 0h24v24H0z" fill="none"/><path d="M3 5a1 1 0 0 1 1 -1h16a1 1 0 0 1 1 1v10a1 1 0 0 1 -1 1h-16a1 1 0 0 1 -1 -1v-10z" /><path d="M7 20h10" /><path d="M9 16v4" /><path d="M15 16v4" />
<!--Moon Icon-->
<symbol id="moon" viewBox="0 0 24 24"  fill="none"  stroke="currentColor"  stroke-width="2"  stroke-linecap="round"  stroke-linejoin="round"  class="icon icon-tabler icons-tabler-outline icon-tabler-moon-stars"><path stroke="none" d="M0 0h24v24H0z" fill="none"/><path d="M12 3c.132 0 .263 0 .393 0a7.5 7.5 0 0 0 7.92 12.446a9 9 0 1 1 -8.313 -12.454z" /><path d="M17 4a2 2 0 0 0 2 2a2 2 0 0 0 -2 2a2 2 0 0 0 -2 -2a2 2 0 0 0 2 -2" /><path d="M19 11h2m-1 -1v2" />
<!--Sun Icon-->
<symbol id="sun" viewBox="0 0 24 24"  fill="none"  stroke="currentColor"  stroke-width="2"  stroke-linecap="round"  stroke-linejoin="round"  class="icon icon-tabler icons-tabler-outline icon-tabler-sun"><path stroke="none" d="M0 0h24v24H0z" fill="none"/><path d="M12 12m-4 0a4 4 0 1 0 8 0a4 4 0 1 0 -8 0" /><path d="M3 12h1m8 -9v1m8 8h1m-9 8v1m-6.4 -15.4l.7 .7m12.1 -.7l-.7 .7m0 11.4l.7 .7m-12.1 -.7l-.7 .7" />
<!--Home Icon-->
<symbol id="home" viewBox="0 0 576 512"><!--!Font Awesome Free 6.5.2 by @fontawesome - https://fontawesome.com License - https://fontawesome.com/license/free Copyright 2024 Fonticons, Inc.--><path d="M575.8 255.5c0 18-15 32.1-32 32.1h-32l.7 160.2c0 2.7-.2 5.4-.5 8.1V472c0 22.1-17.9 40-40 40H456c-1.1 0-2.2 0-3.3-.1c-1.4 .1-2.8 .1-4.2 .1H416 392c-22.1 0-40-17.9-40-40V448 384c0-17.7-14.3-32-32-32H256c-17.7 0-32 14.3-32 32v64 24c0 22.1-17.9 40-40 40H160 128.1c-1.5 0-3-.1-4.5-.2c-1.2 .1-2.4 .2-3.6 .2H104c-22.1 0-40-17.9-40-40V360c0-.9 0-1.9 .1-2.8V287.6H32c-18 0-32-14-32-32.1c0-9 3-17 10-24L266.4 8c7-7 15-8 22-8s15 2 21 7L564.8 231.5c8 7 12 15 11 24z"/>
<!--Project Icon-->
<symbol id="project" viewBox="0 0 640 512"><!--!Font Awesome Free 6.5.2 by @fontawesome - https://fontawesome.com License - https://fontawesome.com/license/free Copyright 2024 Fonticons, Inc.--><path d="M392.8 1.2c-17-4.9-34.7 5-39.6 22l-128 448c-4.9 17 5 34.7 22 39.6s34.7-5 39.6-22l128-448c4.9-17-5-34.7-22-39.6zm80.6 120.1c-12.5 12.5-12.5 32.8 0 45.3L562.7 256l-89.4 89.4c-12.5 12.5-12.5 32.8 0 45.3s32.8 12.5 45.3 0l112-112c12.5-12.5 12.5-32.8 0-45.3l-112-112c-12.5-12.5-32.8-12.5-45.3 0zm-306.7 0c-12.5-12.5-32.8-12.5-45.3 0l-112 112c-12.5 12.5-12.5 32.8 0 45.3l112 112c12.5 12.5 32.8 12.5 45.3 0s12.5-32.8 0-45.3L77.3 256l89.4-89.4c12.5-12.5 12.5-32.8 0-45.3z"/>
<!--About Icon-->
<symbol id="about" viewBox="0 0 576 512"><!--!Font Awesome Free 6.5.2 by @fontawesome - https://fontawesome.com License - https://fontawesome.com/license/free Copyright 2024 Fonticons, Inc.--><path d="M64 32C28.7 32 0 60.7 0 96V416c0 35.3 28.7 64 64 64H512c35.3 0 64-28.7 64-64V96c0-35.3-28.7-64-64-64H64zm80 256h64c44.2 0 80 35.8 80 80c0 8.8-7.2 16-16 16H80c-8.8 0-16-7.2-16-16c0-44.2 35.8-80 80-80zm-32-96a64 64 0 1 1 128 0 64 64 0 1 1 -128 0zm256-32H496c8.8 0 16 7.2 16 16s-7.2 16-16 16H368c-8.8 0-16-7.2-16-16s7.2-16 16-16zm0 64H496c8.8 0 16 7.2 16 16s-7.2 16-16 16H368c-8.8 0-16-7.2-16-16s7.2-16 16-16zm0 64H496c8.8 0 16 7.2 16 16s-7.2 16-16 16H368c-8.8 0-16-7.2-16-16s7.2-16 16-16z"/>
<!--Skills Icon-->
<symbol id="skills" viewBox="0 0 576 512"><!--!Font Awesome Free 6.5.2 by @fontawesome - https://fontawesome.com License - https://fontawesome.com/license/free Copyright 2024 Fonticons, Inc.--><path d="M0 80C0 53.5 21.5 32 48 32h96c26.5 0 48 21.5 48 48V96H384V80c0-26.5 21.5-48 48-48h96c26.5 0 48 21.5 48 48v96c0 26.5-21.5 48-48 48H432c-26.5 0-48-21.5-48-48V160H192v16c0 1.7-.1 3.4-.3 5L272 288h96c26.5 0 48 21.5 48 48v96c0 26.5-21.5 48-48 48H272c-26.5 0-48-21.5-48-48V336c0-1.7 .1-3.4 .3-5L144 224H48c-26.5 0-48-21.5-48-48V80z"/>
<!--Contact Icon-->
<symbol id="contact" viewBox="0 0 512 512"><!--!Font Awesome Free 6.5.2 by @fontawesome - https://fontawesome.com License - https://fontawesome.com/license/free Copyright 2024 Fonticons, Inc.--><path d="M96 0C60.7 0 32 28.7 32 64V448c0 35.3 28.7 64 64 64H384c35.3 0 64-28.7 64-64V64c0-35.3-28.7-64-64-64H96zM208 288h64c44.2 0 80 35.8 80 80c0 8.8-7.2 16-16 16H144c-8.8 0-16-7.2-16-16c0-44.2 35.8-80 80-80zm-32-96a64 64 0 1 1 128 0 64 64 0 1 1 -128 0zM512 80c0-8.8-7.2-16-16-16s-16 7.2-16 16v64c0 8.8 7.2 16 16 16s16-7.2 16-16V80zM496 192c-8.8 0-16 7.2-16 16v64c0 8.8 7.2 16 16 16s16-7.2 16-16V208c0-8.8-7.2-16-16-16zm16 144c0-8.8-7.2-16-16-16s-16 7.2-16 16v64c0 8.8 7.2 16 16 16s16-7.2 16-16V336z"/>
<!--Github Icon-->
<symbol id="github" viewBox="0 0 496 512"><!--!Font Awesome Free 6.5.2 by @fontawesome - https://fontawesome.com License - https://fontawesome.com/license/free Copyright 2024 Fonticons, Inc.--><path d="M165.9 397.4c0 2-2.3 3.6-5.2 3.6-3.3 .3-5.6-1.3-5.6-3.6 0-2 2.3-3.6 5.2-3.6 3-.3 5.6 1.3 5.6 3.6zm-31.1-4.5c-.7 2 1.3 4.3 4.3 4.9 2.6 1 5.6 0 6.2-2s-1.3-4.3-4.3-5.2c-2.6-.7-5.5 .3-6.2 2.3zm44.2-1.7c-2.9 .7-4.9 2.6-4.6 4.9 .3 2 2.9 3.3 5.9 2.6 2.9-.7 4.9-2.6 4.6-4.6-.3-1.9-3-3.2-5.9-2.9zM244.8 8C106.1 8 0 113.3 0 252c0 110.9 69.8 205.8 169.5 239.2 12.8 2.3 17.3-5.6 17.3-12.1 0-6.2-.3-40.4-.3-61.4 0 0-70 15-84.7-29.8 0 0-11.4-29.1-27.8-36.6 0 0-22.9-15.7 1.6-15.4 0 0 24.9 2 38.6 25.8 21.9 38.6 58.6 27.5 72.9 20.9 2.3-16 8.8-27.1 16-33.7-55.9-6.2-112.3-14.3-112.3-110.5 0-27.5 7.6-41.3 23.6-58.9-2.6-6.5-11.1-33.3 2.6-67.9 20.9-6.5 69 27 69 27 20-5.6 41.5-8.5 62.8-8.5s42.8 2.9 62.8 8.5c0 0 48.1-33.6 69-27 13.7 34.7 5.2 61.4 2.6 67.9 16 17.7 25.8 31.5 25.8 58.9 0 96.5-58.9 104.2-114.8 110.5 9.2 7.9 17 22.9 17 46.4 0 33.7-.3 75.4-.3 83.6 0 6.5 4.6 14.4 17.3 12.1C428.2 457.8 496 362.9 496 252 496 113.3 383.5 8 244.8 8zM97.2 352.9c-1.3 1-1 3.3 .7 5.2 1.6 1.6 3.9 2.3 5.2 1 1.3-1 1-3.3-.7-5.2-1.6-1.6-3.9-2.3-5.2-1zm-10.8-8.1c-.7 1.3 .3 2.9 2.3 3.9 1.6 1 3.6 .7 4.3-.7 .7-1.3-.3-2.9-2.3-3.9-2-.6-3.6-.3-4.3 .7zm32.4 35.6c-1.6 1.3-1 4.3 1.3 6.2 2.3 2.3 5.2 2.6 6.5 1 1.3-1.3 .7-4.3-1.3-6.2-2.2-2.3-5.2-2.6-6.5-1zm-11.4-14.7c-1.6 1-1.6 3.6 0 5.9 1.6 2.3 4.3 3.3 5.6 2.3 1.6-1.3 1.6-3.9 0-6.2-1.4-2.3-4-3.3-5.6-2z"/>
<!--Linkedin Icon-->
<symbol id="linkedin" viewBox="0 0 448 512"><!--!Font Awesome Free 6.5.2 by @fontawesome - https://fontawesome.com License - https://fontawesome.com/license/free Copyright 2024 Fonticons, Inc.--><path d="M416 32H31.9C14.3 32 0 46.5 0 64.3v383.4C0 465.5 14.3 480 31.9 480H416c17.6 0 32-14.5 32-32.3V64.3c0-17.8-14.4-32.3-32-32.3zM135.4 416H69V202.2h66.5V416zm-33.2-243c-21.3 0-38.5-17.3-38.5-38.5S80.9 96 102.2 96c21.2 0 38.5 17.3 38.5 38.5 0 21.3-17.2 38.5-38.5 38.5zm282.1 243h-66.4V312c0-24.8-.5-56.7-34.5-56.7-34.6 0-39.9 27-39.9 54.9V416h-66.4V202.2h63.7v29.2h.9c8.9-16.8 30.6-34.5 62.9-34.5 67.2 0 79.7 44.3 79.7 101.9V416z"/>
<!--World Icon-->
<symbol id="worlds" viewBox="0 0 24 24"  fill="none"  stroke="currentColor"  stroke-width="2"  stroke-linecap="round"  stroke-linejoin="round"  class="icon icon-tabler icons-tabler-outline icon-tabler-world"><path stroke="none" d="M0 0h24v24H0z" fill="none"/><path d="M3 12a9 9 0 1 0 18 0a9 9 0 0 0 -18 0" /><path d="M3.6 9h16.8" /><path d="M3.6 15h16.8" /><path d="M11.5 3a17 17 0 0 0 0 18" /><path d="M12.5 3a17 17 0 0 1 0 18" />
<!--Link Icon-->
<symbol id="link" viewBox="0 0 512 512"><!--!Font Awesome Free 6.5.2 by @fontawesome - https://fontawesome.com License - https://fontawesome.com/license/free Copyright 2024 Fonticons, Inc.--><path d="M320 0c-17.7 0-32 14.3-32 32s14.3 32 32 32h82.7L201.4 265.4c-12.5 12.5-12.5 32.8 0 45.3s32.8 12.5 45.3 0L448 109.3V192c0 17.7 14.3 32 32 32s32-14.3 32-32V32c0-17.7-14.3-32-32-32H320zM80 32C35.8 32 0 67.8 0 112V432c0 44.2 35.8 80 80 80H400c44.2 0 80-35.8 80-80V320c0-17.7-14.3-32-32-32s-32 14.3-32 32V432c0 8.8-7.2 16-16 16H80c-8.8 0-16-7.2-16-16V112c0-8.8 7.2-16 16-16H192c17.7 0 32-14.3 32-32s-14.3-32-32-32H80z"/>
<!--React-->
<symbol id="React" viewBox="0 0 512 512" fill="currentColor"><!--!Font Awesome Free 6.5.2 by @fontawesome - https://fontawesome.com License - https://fontawesome.com/license/free Copyright 2024 Fonticons, Inc.--><path d="M418.2 177.2c-5.4-1.8-10.8-3.5-16.2-5.1 .9-3.7 1.7-7.4 2.5-11.1 12.3-59.6 4.2-107.5-23.1-123.3-26.3-15.1-69.2 .6-112.6 38.4-4.3 3.7-8.5 7.6-12.5 11.5-2.7-2.6-5.5-5.2-8.3-7.7-45.5-40.4-91.1-57.4-118.4-41.5-26.2 15.2-34 60.3-23 116.7 1.1 5.6 2.3 11.1 3.7 16.7-6.4 1.8-12.7 3.8-18.6 5.9C38.3 196.2 0 225.4 0 255.6c0 31.2 40.8 62.5 96.3 81.5 4.5 1.5 9 3 13.6 4.3-1.5 6-2.8 11.9-4 18-10.5 55.5-2.3 99.5 23.9 114.6 27 15.6 72.4-.4 116.6-39.1 3.5-3.1 7-6.3 10.5-9.7 4.4 4.3 9 8.4 13.6 12.4 42.8 36.8 85.1 51.7 111.2 36.6 27-15.6 35.8-62.9 24.4-120.5-.9-4.4-1.9-8.9-3-13.5 3.2-.9 6.3-1.9 9.4-2.9 57.7-19.1 99.5-50 99.5-81.7 0-30.3-39.4-59.7-93.8-78.4zM282.9 92.3c37.2-32.4 71.9-45.1 87.7-36 16.9 9.7 23.4 48.9 12.8 100.4-.7 3.4-1.4 6.7-2.3 10-22.2-5-44.7-8.6-67.3-10.6-13-18.6-27.2-36.4-42.6-53.1 3.9-3.7 7.7-7.2 11.7-10.7zM167.2 307.5c5.1 8.7 10.3 17.4 15.8 25.9-15.6-1.7-31.1-4.2-46.4-7.5 4.4-14.4 9.9-29.3 16.3-44.5 4.6 8.8 9.3 17.5 14.3 26.1zm-30.3-120.3c14.4-3.2 29.7-5.8 45.6-7.8-5.3 8.3-10.5 16.8-15.4 25.4-4.9 8.5-9.7 17.2-14.2 26-6.3-14.9-11.6-29.5-16-43.6zm27.4 68.9c6.6-13.8 13.8-27.3 21.4-40.6s15.8-26.2 24.4-38.9c15-1.1 30.3-1.7 45.9-1.7s31 .6 45.9 1.7c8.5 12.6 16.6 25.5 24.3 38.7s14.9 26.7 21.7 40.4c-6.7 13.8-13.9 27.4-21.6 40.8-7.6 13.3-15.7 26.2-24.2 39-14.9 1.1-30.4 1.6-46.1 1.6s-30.9-.5-45.6-1.4c-8.7-12.7-16.9-25.7-24.6-39s-14.8-26.8-21.5-40.6zm180.6 51.2c5.1-8.8 9.9-17.7 14.6-26.7 6.4 14.5 12 29.2 16.9 44.3-15.5 3.5-31.2 6.2-47 8 5.4-8.4 10.5-17 15.5-25.6zm14.4-76.5c-4.7-8.8-9.5-17.6-14.5-26.2-4.9-8.5-10-16.9-15.3-25.2 16.1 2 31.5 4.7 45.9 8-4.6 14.8-10 29.2-16.1 43.4zM256.2 118.3c10.5 11.4 20.4 23.4 29.6 35.8-19.8-.9-39.7-.9-59.5 0 9.8-12.9 19.9-24.9 29.9-35.8zM140.2 57c16.8-9.8 54.1 4.2 93.4 39 2.5 2.2 5 4.6 7.6 7-15.5 16.7-29.8 34.5-42.9 53.1-22.6 2-45 5.5-67.2 10.4-1.3-5.1-2.4-10.3-3.5-15.5-9.4-48.4-3.2-84.9 12.6-94zm-24.5 263.6c-4.2-1.2-8.3-2.5-12.4-3.9-21.3-6.7-45.5-17.3-63-31.2-10.1-7-16.9-17.8-18.8-29.9 0-18.3 31.6-41.7 77.2-57.6 5.7-2 11.5-3.8 17.3-5.5 6.8 21.7 15 43 24.5 63.6-9.6 20.9-17.9 42.5-24.8 64.5zm116.6 98c-16.5 15.1-35.6 27.1-56.4 35.3-11.1 5.3-23.9 5.8-35.3 1.3-15.9-9.2-22.5-44.5-13.5-92 1.1-5.6 2.3-11.2 3.7-16.7 22.4 4.8 45 8.1 67.9 9.8 13.2 18.7 27.7 36.6 43.2 53.4-3.2 3.1-6.4 6.1-9.6 8.9zm24.5-24.3c-10.2-11-20.4-23.2-30.3-36.3 9.6 .4 19.5 .6 29.5 .6 10.3 0 20.4-.2 30.4-.7-9.2 12.7-19.1 24.8-29.6 36.4zm130.7 30c-.9 12.2-6.9 23.6-16.5 31.3-15.9 9.2-49.8-2.8-86.4-34.2-4.2-3.6-8.4-7.5-12.7-11.5 15.3-16.9 29.4-34.8 42.2-53.6 22.9-1.9 45.7-5.4 68.2-10.5 1 4.1 1.9 8.2 2.7 12.2 4.9 21.6 5.7 44.1 2.5 66.3zm18.2-107.5c-2.8 .9-5.6 1.8-8.5 2.6-7-21.8-15.6-43.1-25.5-63.8 9.6-20.4 17.7-41.4 24.5-62.9 5.2 1.5 10.2 3.1 15 4.7 46.6 16 79.3 39.8 79.3 58 0 19.6-34.9 44.9-84.8 61.4zm-149.7-15c25.3 0 45.8-20.5 45.8-45.8s-20.5-45.8-45.8-45.8c-25.3 0-45.8 20.5-45.8 45.8s20.5 45.8 45.8 45.8z"/>
<!--JavaScript-->
<symbol id="JavaScript" viewBox="0 0 630 630"> <rect width="630" height="630" fill="#f7df1e"/> <path d="m423.2 492.19c12.69 20.72 29.2 35.95 58.4 35.95 24.53 0 40.2-12.26 40.2-29.2 0-20.3-16.1-27.49-43.1-39.3l-14.8-6.35c-42.72-18.2-71.1-41-71.1-89.2 0-44.4 33.83-78.2 86.7-78.2 37.64 0 64.7 13.1 84.2 47.4l-46.1 29.6c-10.15-18.2-21.1-25.37-38.1-25.37-17.34 0-28.33 11-28.33 25.37 0 17.76 11 24.95 36.4 35.95l14.8 6.34c50.3 21.57 78.7 43.56 78.7 93 0 53.3-41.87 82.5-98.1 82.5-54.98 0-90.5-26.2-107.88-60.54zm-209.13 5.13c9.3 16.5 17.76 30.45 38.1 30.45 19.45 0 31.72-7.61 31.72-37.2v-201.3h59.2v202.1c0 61.3-35.94 89.2-88.4 89.2-47.4 0-74.85-24.53-88.81-54.075z"/>
<!--MySQL-->
<symbol id="MySQL" viewBox="0 0 32 32" fill="currentColor"><g id="SVGRepo_bgCarrier" stroke-width="0"></g><g id="SVGRepo_tracerCarrier" stroke-linecap="round" stroke-linejoin="round"></g><g id="SVGRepo_iconCarrier"><title>file_type_mysql</title><path d="M8.785,6.865a3.055,3.055,0,0,0-.785.1V7h.038a6.461,6.461,0,0,0,.612.785c.154.306.288.611.441.917.019-.019.038-.039.038-.039a1.074,1.074,0,0,0,.4-.957,4.314,4.314,0,0,1-.23-.4c-.115-.191-.364-.287-.517-.44" style="fill:#5d87a1;fill-rule:evenodd"></path><path d="M27.78,23.553a8.849,8.849,0,0,0-3.712.536c-.287.115-.745.115-.785.478.154.153.172.4.307.613a4.467,4.467,0,0,0,.995,1.167c.4.306.8.611,1.225.879.745.461,1.588.728,2.314,1.187.422.268.842.612,1.264.9.21.153.343.4.611.5v-.058a3.844,3.844,0,0,0-.291-.613c-.191-.19-.383-.363-.575-.554a9.118,9.118,0,0,0-1.99-1.932c-.613-.422-1.953-1-2.2-1.7l-.039-.039a7.69,7.69,0,0,0,1.321-.308c.65-.172,1.243-.133,1.912-.3.307-.077.862-.268.862-.268v-.3c-.342-.34-.587-.795-.947-1.116a25.338,25.338,0,0,0-3.122-2.328c-.587-.379-1.344-.623-1.969-.946-.226-.114-.6-.17-.737-.36a7.594,7.594,0,0,1-.776-1.457c-.548-1.04-1.079-2.193-1.551-3.293a20.236,20.236,0,0,0-.965-2.157A19.078,19.078,0,0,0,11.609,5a9.07,9.07,0,0,0-2.421-.776c-.474-.02-.946-.057-1.419-.075A7.55,7.55,0,0,1,6.9,3.485C5.818,2.8,3.038,1.328,2.242,3.277,1.732,4.508,3,5.718,3.435,6.343A8.866,8.866,0,0,1,4.4,7.762c.133.322.171.663.3,1A22.556,22.556,0,0,0,5.687,11.3a8.946,8.946,0,0,0,.7,1.172c.153.209.417.3.474.645a5.421,5.421,0,0,0-.436,1.419,8.336,8.336,0,0,0,.549,6.358c.3.473,1.022,1.514,1.987,1.116.851-.34.662-1.419.908-2.364.056-.229.019-.379.132-.53V19.3s.483,1.061.723,1.6a10.813,10.813,0,0,0,2.4,2.59A3.514,3.514,0,0,1,14,24.657V25h.427A1.054,1.054,0,0,0,14,24.212a9.4,9.4,0,0,1-.959-1.16,24.992,24.992,0,0,1-2.064-3.519c-.3-.6-.553-1.258-.793-1.857-.11-.231-.11-.58-.295-.7a7.266,7.266,0,0,0-.884,1.313,11.419,11.419,0,0,0-.517,2.921c-.073.02-.037,0-.073.038-.589-.155-.792-.792-1.014-1.332a8.756,8.756,0,0,1-.166-5.164c.128-.405.683-1.681.461-2.068-.111-.369-.48-.58-.682-.871a7.767,7.767,0,0,1-.663-1.237C5.912,9.5,5.69,8.3,5.212,7.216a10.4,10.4,0,0,0-.921-1.489A9.586,9.586,0,0,1,3.276,4.22c-.092-.213-.221-.561-.074-.793a.3.3,0,0,1,.259-.252c.238-.212.921.058,1.16.174a9.2,9.2,0,0,1,1.824.967c.258.194.866.685.866.685h.18c.612.133,1.3.037,1.876.21a12.247,12.247,0,0,1,2.755,1.32,16.981,16.981,0,0,1,5.969,6.545c.23.439.327.842.537,1.3.4.94.9,1.9,1.3,2.814a12.578,12.578,0,0,0,1.36,2.564c.286.4,1.435.612,1.952.822a13.7,13.7,0,0,1,1.32.535c.651.4,1.3.861,1.913,1.3.305.23,1.262.708,1.32,1.091" ></path></g>
<!--PHP-->
<symbol id="PHP" viewBox="0 -1 100 50" fill="currentColor"> <path d="m7.579 10.123 14.204 0c4.169 0.035 7.19 1.237 9.063 3.604 1.873 2.367 2.491 5.6 1.855 9.699-0.247 1.873-0.795 3.71-1.643 5.512-0.813 1.802-1.943 3.427-3.392 4.876-1.767 1.837-3.657 3.003-5.671 3.498-2.014 0.495-4.099 0.742-6.254 0.742l-6.36 0-2.014 10.07-7.367 0 7.579-38.001 0 0m6.201 6.042-3.18 15.9c0.212 0.035 0.424 0.053 0.636 0.053 0.247 0 0.495 0 0.742 0 3.392 0.035 6.219-0.3 8.48-1.007 2.261-0.742 3.781-3.321 4.558-7.738 0.636-3.71 0-5.848-1.908-6.413-1.873-0.565-4.222-0.83-7.049-0.795-0.424 0.035-0.83 0.053-1.219 0.053-0.353 0-0.724 0-1.113 0l0.053-0.053"/> <path d="m41.093 0 7.314 0-2.067 10.123 6.572 0c3.604 0.071 6.289 0.813 8.056 2.226 1.802 1.413 2.332 4.099 1.59 8.056l-3.551 17.649-7.42 0 3.392-16.854c0.353-1.767 0.247-3.021-0.318-3.763-0.565-0.742-1.784-1.113-3.657-1.113l-5.883-0.053-4.346 21.783-7.314 0 7.632-38.054 0 0"/> <path d="m70.412 10.123 14.204 0c4.169 0.035 7.19 1.237 9.063 3.604 1.873 2.367 2.491 5.6 1.855 9.699-0.247 1.873-0.795 3.71-1.643 5.512-0.813 1.802-1.943 3.427-3.392 4.876-1.767 1.837-3.657 3.003-5.671 3.498-2.014 0.495-4.099 0.742-6.254 0.742l-6.36 0-2.014 10.07-7.367 0 7.579-38.001 0 0m6.201 6.042-3.18 15.9c0.212 0.035 0.424 0.053 0.636 0.053 0.247 0 0.495 0 0.742 0 3.392 0.035 6.219-0.3 8.48-1.007 2.261-0.742 3.781-3.321 4.558-7.738 0.636-3.71 0-5.848-1.908-6.413-1.873-0.565-4.222-0.83-7.049-0.795-0.424 0.035-0.83 0.053-1.219 0.053-0.353 0-0.724 0-1.113 0l0.053-0.053"/>
<!--Remix-->
<symbol id="Remix" viewBox="0 0 539 601" fill="none"> <g filter="url(#filter0_dd_3_106)"> <path fillRule="evenodd" clipRule="evenodd" d="M456.946 428.768C461.201 483.418 461.201 509.036 461.201 537H334.756C334.756 530.909 334.865 525.337 334.975 519.687C335.317 502.123 335.674 483.807 332.828 446.819C329.067 392.667 305.748 380.634 262.871 380.634H224.883H64V282.109H268.889C323.049 282.109 350.13 265.633 350.13 222.011C350.13 183.654 323.049 160.41 268.889 160.41H64V64H291.456C414.069 64 475 121.912 475 214.42C475 283.613 432.123 328.739 374.201 336.26C423.096 346.037 451.681 373.865 456.946 428.768Z" fill="#E8F2FF" /> <path d="M64 537V463.553H197.697C220.029 463.553 224.878 480.116 224.878 489.994V537H64Z" fill="#E8F2FF" /> </g> <defs> <filter id="filter0_dd_3_106" x="0" y="0" width="539" height="601" filterUnits="userSpaceOnUse" colorInterpolationFilters="sRGB"> <feFlood floodOpacity="0" result="BackgroundImageFix" /> <feColorMatrix in="SourceAlpha" type="matrix" values="0 0 0 0 0 0 0 0 0 0 0 0 0 0 0 0 0 0 127 0" result="hardAlpha" /> <feOffset /> <feGaussianBlur stdDeviation="28" /> <feComposite in2="hardAlpha" operator="out" /> <feColorMatrix type="matrix" values="0 0 0 0 0.223529 0 0 0 0 0.572549 0 0 0 0 1 0 0 0 1 0" /> <feBlend mode="normal" in2="BackgroundImageFix" result="effect1_dropShadow_3_106" /> <feColorMatrix in="SourceAlpha" type="matrix" values="0 0 0 0 0 0 0 0 0 0 0 0 0 0 0 0 0 0 127 0" result="hardAlpha" /> <feOffset /> <feGaussianBlur stdDeviation="32" /> <feComposite in2="hardAlpha" operator="out" /> <feColorMatrix type="matrix" values="0 0 0 0 0.223529 0 0 0 0 0.572549 0 0 0 0 1 0 0 0 0.9 0" /> <feBlend mode="normal" in2="effect1_dropShadow_3_106" result="effect2_dropShadow_3_106" /> <feBlend mode="normal" in="SourceGraphic" in2="effect2_dropShadow_3_106" result="shape" /> </filter> </defs>
<!--TypeScript-->
<symbol id="TypeScript" viewBox="0 0 32 32"><title>file_type_typescript</title><path d="M23.827,8.243A4.424,4.424,0,0,1,26.05,9.524a5.853,5.853,0,0,1,.852,1.143c.011.045-1.534,1.083-2.471,1.662-.034.023-.169-.124-.322-.35a2.014,2.014,0,0,0-1.67-1c-1.077-.074-1.771.49-1.766,1.433a1.3,1.3,0,0,0,.153.666c.237.49.677.784,2.059,1.383,2.544,1.095,3.636,1.817,4.31,2.843a5.158,5.158,0,0,1,.416,4.333,4.764,4.764,0,0,1-3.932,2.815,10.9,10.9,0,0,1-2.708-.028,6.531,6.531,0,0,1-3.616-1.884,6.278,6.278,0,0,1-.926-1.371,2.655,2.655,0,0,1,.327-.208c.158-.09.756-.434,1.32-.761L19.1,19.6l.214.312a4.771,4.771,0,0,0,1.35,1.292,3.3,3.3,0,0,0,3.458-.175,1.545,1.545,0,0,0,.2-1.974c-.276-.395-.84-.727-2.443-1.422a8.8,8.8,0,0,1-3.349-2.055,4.687,4.687,0,0,1-.976-1.777,7.116,7.116,0,0,1-.062-2.268,4.332,4.332,0,0,1,3.644-3.374A9,9,0,0,1,23.827,8.243ZM15.484,9.726l.011,1.454h-4.63V24.328H7.6V11.183H2.97V9.755A13.986,13.986,0,0,1,3.01,8.289c.017-.023,2.832-.034,6.245-.028l6.211.017Z" style="fill:#007acc"/></svg>
<!--GraphQL-->
<symbol id="GraphQL" fill="#E10098" viewBox="0 0 32 32"><path d="M18.734 3.667l6.578 3.802c1.089-1.146 2.901-1.193 4.047-0.104 0.193 0.188 0.365 0.401 0.5 0.635 0.786 1.37 0.313 3.12-1.063 3.906-0.229 0.13-0.479 0.234-0.745 0.297v7.599c1.531 0.365 2.474 1.896 2.109 3.427-0.063 0.271-0.172 0.531-0.307 0.771-0.792 1.365-2.536 1.833-3.906 1.042-0.26-0.146-0.5-0.344-0.698-0.568l-6.542 3.776c0.495 1.495-0.318 3.109-1.813 3.604-0.292 0.099-0.594 0.146-0.896 0.146-1.573 0-2.854-1.271-2.854-2.849 0-0.271 0.042-0.547 0.12-0.813l-6.583-3.797c-1.089 1.141-2.896 1.188-4.036 0.094-1.135-1.089-1.177-2.891-0.094-4.031 0.38-0.396 0.865-0.677 1.396-0.807v-7.599c-1.531-0.365-2.479-1.906-2.109-3.443 0.063-0.266 0.167-0.521 0.302-0.755 0.786-1.365 2.536-1.833 3.901-1.042 0.234 0.135 0.453 0.302 0.641 0.5l6.583-3.797c-0.448-1.51 0.417-3.099 1.922-3.542 0.26-0.083 0.536-0.12 0.813-0.12 1.573 0 2.854 1.271 2.854 2.844 0 0.281-0.042 0.557-0.12 0.823zM18.047 4.839c-0.026 0.026-0.047 0.052-0.078 0.078l8.615 14.917c0.036-0.010 0.078-0.021 0.109-0.031v-7.609c-1.526-0.375-2.453-1.922-2.073-3.448 0.005-0.031 0.016-0.068 0.021-0.099zM14.026 4.917l-0.078-0.078-6.594 3.802c0.438 1.51-0.438 3.089-1.948 3.526-0.036 0.010-0.068 0.016-0.104 0.026v7.609l0.115 0.031 8.615-14.917zM16.797 5.594c-0.521 0.146-1.073 0.146-1.589 0l-8.615 14.917c0.391 0.375 0.667 0.859 0.802 1.391h17.214c0.13-0.531 0.406-1.016 0.802-1.396zM18.109 27.229l6.552-3.786c-0.021-0.063-0.036-0.125-0.052-0.188h-17.219l-0.031 0.109 6.589 3.802c0.516-0.536 1.245-0.87 2.052-0.87 0.839 0 1.589 0.359 2.109 0.932z"/>
<!--Shopify-->
<symbol id="Shopify" viewBox="-18 0 292 292" preserveAspectRatio="xMidYMid"><path d="M223.774 57.34c-.201-1.46-1.48-2.268-2.537-2.357-1.055-.088-23.383-1.743-23.383-1.743s-15.507-15.395-17.209-17.099c-1.703-1.703-5.029-1.185-6.32-.805-.19.056-3.388 1.043-8.678 2.68-5.18-14.906-14.322-28.604-30.405-28.604-.444 0-.901.018-1.358.044C129.31 3.407 123.644.779 118.75.779c-37.465 0-55.364 46.835-60.976 70.635-14.558 4.511-24.9 7.718-26.221 8.133-8.126 2.549-8.383 2.805-9.45 10.462C21.3 95.806.038 260.235.038 260.235l165.678 31.042 89.77-19.42S223.973 58.8 223.775 57.34zM156.49 40.848l-14.019 4.339c.005-.988.01-1.96.01-3.023 0-9.264-1.286-16.723-3.349-22.636 8.287 1.04 13.806 10.469 17.358 21.32zm-27.638-19.483c2.304 5.773 3.802 14.058 3.802 25.238 0 .572-.005 1.095-.01 1.624-9.117 2.824-19.024 5.89-28.953 8.966 5.575-21.516 16.025-31.908 25.161-35.828zm-11.131-10.537c1.617 0 3.246.549 4.805 1.622-12.007 5.65-24.877 19.88-30.312 48.297l-22.886 7.088C75.694 46.16 90.81 10.828 117.72 10.828z" fill="#95BF46"/><path d="M221.237 54.983c-1.055-.088-23.383-1.743-23.383-1.743s-15.507-15.395-17.209-17.099c-.637-.634-1.496-.959-2.394-1.099l-12.527 256.233 89.762-19.418S223.972 58.8 223.774 57.34c-.201-1.46-1.48-2.268-2.537-2.357" fill="#5E8E3E"/><path d="M135.242 104.585l-11.069 32.926s-9.698-5.176-21.586-5.176c-17.428 0-18.305 10.937-18.305 13.693 0 15.038 39.2 20.8 39.2 56.024 0 27.713-17.577 45.558-41.277 45.558-28.44 0-42.984-17.7-42.984-17.7l7.615-25.16s14.95 12.835 27.565 12.835c8.243 0 11.596-6.49 11.596-11.232 0-19.616-32.16-20.491-32.16-52.724 0-27.129 19.472-53.382 58.778-53.382 15.145 0 22.627 4.338 22.627 4.338" fill="#FFF"/>
<!--Python-->
<symbol id="Python" width="30" height="30" viewBox="0 0 256 255" version="1.1" xmlns="http://www.w3.org/2000/svg" xmlnsXlink="http://www.w3.org/1999/xlink" preserveAspectRatio="xMidYMid"> <defs> <linearGradient x1="12.9593594%" y1="12.0393928%" x2="79.6388325%" y2="78.2008538%" id="linearGradient-1"> <stop stopColor="#387EB8" offset="0%"></stop> <stop stopColor="#366994" offset="100%"></stop> </linearGradient> <linearGradient x1="19.127525%" y1="20.5791813%" x2="90.7415328%" y2="88.4290372%" id="linearGradient-2"> <stop stopColor="#FFE052" offset="0%"></stop> <stop stopColor="#FFC331" offset="100%"></stop> </linearGradient> </defs> <g> <path d="M126.915866,0.0722755491 C62.0835831,0.0722801733 66.1321288,28.1874648 66.1321288,28.1874648 L66.2044043,57.3145115 L128.072276,57.3145115 L128.072276,66.0598532 L41.6307171,66.0598532 C41.6307171,66.0598532 0.144551098,61.3549438 0.144551098,126.771315 C0.144546474,192.187673 36.3546019,189.867871 36.3546019,189.867871 L57.9649915,189.867871 L57.9649915,159.51214 C57.9649915,159.51214 56.8001363,123.302089 93.5968379,123.302089 L154.95878,123.302089 C154.95878,123.302089 189.434218,123.859386 189.434218,89.9830604 L189.434218,33.9695088 C189.434218,33.9695041 194.668541,0.0722755491 126.915866,0.0722755491 L126.915866,0.0722755491 L126.915866,0.0722755491 Z M92.8018069,19.6589497 C98.9572068,19.6589452 103.932242,24.6339846 103.932242,30.7893845 C103.932246,36.9447844 98.9572068,41.9198193 92.8018069,41.9198193 C86.646407,41.9198239 81.6713721,36.9447844 81.6713721,30.7893845 C81.6713674,24.6339846 86.646407,19.6589497 92.8018069,19.6589497 L92.8018069,19.6589497 L92.8018069,19.6589497 Z" fill="url(#linearGradient-1)"></path> <path d="M128.757101,254.126271 C193.589403,254.126271 189.540839,226.011081 189.540839,226.011081 L189.468564,196.884035 L127.600692,196.884035 L127.600692,188.138693 L214.042251,188.138693 C214.042251,188.138693 255.528417,192.843589 255.528417,127.427208 C255.52844,62.0108566 219.318366,64.3306589 219.318366,64.3306589 L197.707976,64.3306589 L197.707976,94.6863832 C197.707976,94.6863832 198.87285,130.896434 162.07613,130.896434 L100.714182,130.896434 C100.714182,130.896434 66.238745,130.339138 66.238745,164.215486 L66.238745,220.229038 C66.238745,220.229038 61.0044225,254.126271 128.757101,254.126271 L128.757101,254.126271 L128.757101,254.126271 Z M162.87116,234.539597 C156.715759,234.539597 151.740726,229.564564 151.740726,223.409162 C151.740726,217.253759 156.715759,212.278727 162.87116,212.278727 C169.026563,212.278727 174.001595,217.253759 174.001595,223.409162 C174.001618,229.564564 169.026563,234.539597 162.87116,234.539597 L162.87116,234.539597 L162.87116,234.539597 Z" fill="url(#linearGradient-2)"></path> </g>
<!--Flask-->
<symbol id="Flask" fill="#000000" width="800px" height="800px" viewBox="0 0 512 512" enableBackground="new 0 0 512 512" xmlSpace="preserve"> <g id="e6c6b53d3c8160b22dad35a0f7103ecc"> <path display="inline" fillRule="evenodd" clipRule="evenodd" d="M145.973,124.482c-1.766-15.299,12.003-8.814,10.244,0.41 C153.633,127.35,148.86,125.334,145.973,124.482z M162.363,121.613c3.468-0.354,6.774-0.874,7.787-3.687 c-4.797-2.957-11.965,4.339-9.016,7.787C162.771,125.574,161.323,122.351,162.363,121.613z M116.468,131.038 c2.888-1.343,7.633-0.836,9.016-3.687c-8.596-2.994-24.076-0.784-26.638,4.917C105.399,131.863,110.879,126.663,116.468,131.038z M97.207,132.679c-1.862-0.391-2.58,1.724-1.638,2.867C97.024,135.498,97.218,134.19,97.207,132.679z M92.699,140.875 c-0.262-3.909-9.718-7.03-10.653-1.639C82.864,142.297,90.491,144.266,92.699,140.875z M76.719,137.188 c-1.953,0.091-2.957,1.142-4.099,2.048C74.106,140.102,77.398,139.792,76.719,137.188z M71.803,148.25 c7.218-0.507,9.415,6.13,15.569,5.327C88.519,146.433,73.837,136.606,71.803,148.25z M169.329,183.899 c-2.152-7.142,4.438-13.272,0.409-18.851c-5.578,0.445-10.402,26.334-2.458,26.23c5.704-0.079,7.715-15.738,8.194-20.898 C171.298,172.754,173.117,181.132,169.329,183.899z M100.896,181.034c0.124-1.083-0.568-1.347-1.639-1.233 C99.284,180.907,100.193,181.772,100.896,181.034z M120.976,192.917c0.079-2.539-0.021-4.897-2.048-5.327 c-1.543-0.175-1.451,1.281-2.46,1.641C117.031,191.397,118.175,192.988,120.976,192.917z M101.306,206.031 c7.857,0.884,13.118,6.552,20.489,6.554c-5.878-3.957-11.985-7.683-21.309-8.194C100.189,205.509,101.3,205.216,101.306,206.031z M163.183,212.177c-0.611-2.805-1.828-5.005-3.277-6.968C160.439,208.089,161.174,210.768,163.183,212.177z M118.106,221.191 c-5.143-6.882-13.337-12.879-22.537-14.343C96.868,217.841,109.088,217.92,118.106,221.191z M104.175,223.648 c-3.512-5.911-9.533-9.317-16.803-11.471C91.458,217.255,95.201,224.823,104.175,223.648z M85.324,217.914 c1.399,2.429,4.916,4.912,4.099,8.195c-3.593-1.05-5.34-3.949-9.016-4.917c1.952,2.711,9.402,14.729,13.931,14.345 c2.891-0.25,4.198-3.441,3.688-8.606C95.811,222.176,88.76,220.078,85.324,217.914z M106.223,228.568 c0.911,2.505,1.231,5.598,4.509,5.735C110.174,231.448,108.506,229.699,106.223,228.568z M103.354,229.799 c-1.528-0.167-2.403,0.324-2.457,1.636c0.459,0.09,0.638,0.454,0.818,0.819C103.025,232.203,103.521,231.327,103.354,229.799z M173.427,239.222c0.427-2.316,0.861-6.778,0-9.016C172.901,232.508,170.922,237.686,173.427,239.222z M144.743,230.616 c0.313,2.422-0.858,6.323,1.229,6.97C146.063,235.793,146.481,231.755,144.743,230.616z M164.002,240.042 c-1.189-1.054-2.895,0.539-3.688-0.408c-0.838-2.713-0.491-6.61-2.868-7.787c-0.271,0-0.546,0-0.818,0 c-3.375,6.99-3.042,22.007,2.867,25.814c1.116,1.891,1.225,4.787,4.098,4.92c2.362-1.875,2.942-5.524,3.279-9.428 C161.743,252.076,166.521,243.235,164.002,240.042z M176.297,244.547c0.505-3.628,3.607-8.905,1.229-12.7 C176.741,235.438,175.255,240.499,176.297,244.547z M104.175,247.83c0.653-1.873,0.14-5.05-1.23-6.148 C101.989,243.476,101.433,247.608,104.175,247.83z M111.55,249.467c1.655,1.077,1.782,3.68,4.099,4.098 C118.532,249.885,113.063,243.399,111.55,249.467z M181.623,257.661c0.003,1.256-1.643,2.974-0.409,4.097 C181.451,260.743,182.698,258.631,181.623,257.661z M185.31,273.643c-0.017-1.892,0.231-4.05-0.818-4.915 C184.308,270.187,183.227,273.418,185.31,273.643z M133.269,290.447c0.243,1.526,0.492,3.057,2.048,3.277 C136.322,292.318,135.58,289.828,133.269,290.447z M151.709,292.497c0.57,1.082,2.208,3.231,3.277,2.454 C154.038,294.252,152.944,291.55,151.709,292.497z M190.637,297.005c-1.151,4.879,1.574,9.324,3.689,12.293 C195.192,304.541,195.111,297.729,190.637,297.005z M200.884,328.552c0.619-1.239,0.838-5.057-0.41-5.73 C199.395,324.302,198.433,327.845,200.884,328.552z M219.32,348.226c-0.593-3.011-2.952-6.263-5.325-6.15 C214.825,345.069,214.969,348.754,219.32,348.226z M223.012,353.961c0.017,1.896-0.229,4.059,0.818,4.915 C223.883,356.917,223.855,355.029,223.012,353.961z M87.782,354.372c0.006,1.501,0.809,2.196,1.641,2.869 C89.259,355.898,89.067,354.593,87.782,354.372z M237.764,376.907c-1.009-7.727-5.073-12.404-10.244-15.977 C228.26,368.927,232.179,373.755,237.764,376.907z M303.74,417.478c-0.249-0.232-1.946-0.956-2.05,0 C302.306,417.952,303.416,418.917,303.74,417.478z M511.501,447.802c0,1.506,0,3.003,0,4.508c-0.666,1.385-0.882,3.215-1.231,4.916 c-11.395,7.318-32.803,4.624-42.209,13.935c-16.497-8.887-31.829,5.111-49.17,6.559c-2.865,0.236-6.051-0.241-9.021,0 c-10.246,0.827-20.252,3.223-30.731,4.096c-10.745,0.895-21.512,1.551-32.781,2.05c-4.101,0-8.196,0-12.293,0 c-50.825-2.669-101.077-9.506-138.508-26.228c-18.661-8.338-35.838-18.567-51.632-30.735c-15.37-11.835-31.147-24.993-42.21-39.747 c-11.778-15.711-23.562-30.989-34.012-48.352c-10.081-16.759-19.504-34.412-27.864-54.094 c-8.247-19.408-14.123-38.613-19.672-62.287c-3.627-15.484-7.455-33.015-13.932-47.534c-2.522-5.654-5.458-10.282-5.736-15.574 c0-1.227,0-2.46,0-3.687c2.021-17.212,15.407-27.203,31.143-31.965c3.94-1.191,7.771-2.329,11.474-4.508 c0.241-0.139,2.602-0.38,1.641-1.638c-7.011-1.687-12.779,8.635-20.489,5.737c-6.845-2.574-2.904-13.172,4.508-16.391 c3.46-1.503,10.33-1.894,13.521-3.688c5.502-3.092,7.999-9.625,6.968-15.572c-0.611-3.514-4.258-5.364-4.098-8.196 c0.224-3.949,7.285-7.383,10.653-9.835c4.121-2.999,8.999-6.745,8.606-11.474c-0.414-4.94-6.224-6.514-9.016-10.244 C51.027,42,50.332,33.25,57.458,29.821c7.471-3.595,21.39-1.636,22.949,7.787c1.374,8.305-4.522,11.469-2.051,17.62 c4.604,11.446,40.409-6.672,31.556,17.212c7.874,12.343,38.645,1.784,39.339,21.309c12.834,0.258,18.732,9.997,29.094,13.933 c2.777,1.054,6.084,1.054,9.016,2.048c17.476,5.94,39.132,12.312,46.305,29.095c-6.482,4.367-15.328,1.443-22.946-1.229 c-6.627-2.327-16.287-6.935-22.949-4.099c-6.605,2.813-6.252,14.098-5.327,25.405c2.46,30.102,3.903,61.151,8.194,88.104 c5.993,37.623,18.803,67.756,36.883,91.384c17.49,22.859,38.037,46.796,64.743,63.518c22.535,14.105,47.853,25.234,79.91,32.37 c4.754,1.061,10.501,3.377,13.112,2.869c3.871-0.744,12.201-12.001,15.166-14.75c7.049-6.554,16.534-15.724,26.631-7.789 c-1.372,10.925-11.161,13.433-13.523,23.362c6.071,3.863,12.509,0.366,20.082,0.815c8.812,0.524,15.569,5.577,22.951,4.508 c4.711-0.682,7.069-4.191,10.653-6.554C475.388,448.642,506.78,433.147,511.501,447.802z M422.574,417.478 c-0.174-1.322,0.541-3.543-0.818-3.684C420.574,414.393,419.406,418.16,422.574,417.478z M216.457,128.99 c4.014,2.404,7.548,5.292,11.063,8.199c2.116-6.231-3.957-10.217-11.063-9.837C216.457,127.896,216.457,128.443,216.457,128.99z M326.688,431.001c1.563,0.329,2.694,0.641,2.869-1.227C328.097,429.679,327.104,430.045,326.688,431.001z M270.136,394.938 c-0.138,1.93,3.755,1.967,4.512,1.639C274.007,395.296,272.065,393.633,270.136,394.938z M260.301,387.154 c0.682,0.69,2.407,0.324,3.688,0.411c0.137-1.501-0.458-2.278-0.819-3.281C261.016,384.048,260.421,385.361,260.301,387.154z M181.623,219.55c-1.112-0.942-1.919,0.784-2.459,0c1.335-10.166,3.48-25.818-0.819-34.418c-1.063-0.928-2.745,0.326-3.277-0.412 c2.861-6.83,4.793-21.075,3.687-29.504c-0.389-2.971-1.932-8.255-3.687-9.425c-4.41-2.936-8.423,1.576-11.476,2.459 c-1.921,0.56-4.057,0.16-6.146,0.408c-8.263,0.996-17.031,3.46-22.537,6.146c2.87,1.913,6.938,2.624,8.194,6.146 c-7.14-0.505-12.71-2.583-18.851-4.096c0.655,9.245-10.683,6.348-17.619,6.968c2.396,0.052,2.78,1.21,2.869,2.867 c0.285,5.439-17.613,11.885-23.768,7.789c-8.779,7.078,3.863,14.308,3.278,23.358c-1.726,1.279-2.523,3.485-4.098,4.913 c-8.725,0.212-17.902,1.967-16.394,11.066c-1.179-0.688-3.039-1.147-4.508-0.412c-2.23,5.745,1.514,11.981,6.559,13.116 c1.271-0.37,1.567-1.711,3.278-1.639c11.396,2.179,15.408,9.737,14.753,24.174c-0.114,2.486,0.133,5.73-1.639,7.379 c-6.467-0.443-12.463-16.405-2.05-16.8c-2.497-3.674-4.388-9.155-9.016-9.018c-5.305,0.158-7.686,8.542-11.474,11.475 c5.46,3.017,18.283,11.343,7.785,16.801c5.197,0.779,8.097,2.84,10.244,5.734c3.578,4.832,3.464,12.072,6.148,15.985 c5.431,7.922,8.298-7.106,14.75-0.823c1.524,0.524-0.671-1.48-0.819-1.635c-5.535-5.976-13.977-10.874-17.21-18.031 c2.485-1.139,5.816,0.104,8.194,0.408c0.94-4.814-2.405-10.262-1.229-13.936c0.847-2.634,2.41-1.474,4.099-2.456 c0.993-0.578,0.216-2.73,2.05-2.048c-0.011,5.626-3.401,15.094,0.407,19.259c5.561,0.998,7.167-8.565,11.886-8.605 c2.636-0.023,5.127,4.617,6.965,6.966c2.208,2.819,5.209,6.283,4.508,9.423c-1.476,6.62-12.594,1.58-16.391-1.23 c2.314,9.186,16.553,10.612,17.21,22.543c0.075,1.331-0.597,3.031-0.409,4.504c0.805,6.296,6.676,10.975,12.702,6.97 c0.886,2.258,1.002,5.285,3.281,6.146c1.996-1.688,1.287-6.089,2.457-8.608c7.15,1.497,10.883,4.94,13.112,10.654 c1.104,2.827,0.819,8.067,5.327,8.196c0.69-6.986-4.784-11.315-5.735-18.031c3.673,5.926,16.922,12.338,16.392,21.72 c-0.352,6.188-7.706,6.861-14.753,7.785c6.716,2.308,9.529,9.83,16.801,12.292c1.954,0.666,4.464,0.096,6.556,0.823 c5.321,1.851,13.829,12.759,11.476,19.67c-11.338,5.714-20.184-9.73-32.784-9.423c5.313,6.774,14.004,9.028,21.309,12.293 c7.862,3.51,15.734,7.106,23.358,10.653c17.972,8.359,30.447,19.296,42.209,33.193c-8.161,4.45-32.897-2.952-18.031-8.2 c-5.171-0.175-10.644-3.418-15.164-1.634c2.396,15.636,22.968,13.095,38.522,15.569c-1.416,2.682-3.412,4.786-4.919,7.377 c1.199,0.707,2.856,0.965,4.919,0.819c-0.996,1.597-3.589,1.601-3.69,4.096c1.992,2.653,5.935,3.356,8.606,5.327 c10.531-7.552,11.712,9.581,18.44,9.835c6.358,0.237,7.577-8.899,13.936-9.835c-1.598,3.323-4.725,5.111-6.146,8.608 c6.226-1.505,8.001-4.857,13.107-6.15c18.298-4.629,33.298,10.612,48.355,12.297c5.414,0.603,10.796,3.643,15.573,4.508 c6.176,1.114,9.973-0.919,14.751-3.277c-7.277-6.795-23.986-4.149-29.912-12.297c0.229-1.409,1.193-2.083,2.05-2.865 c-19.18,4.213-31.256-7.281-39.34-18.031c-23.662-6.112-44.421-15.133-54.504-34.831c-0.484-1.855,1.817-0.915,1.233-2.87 c-8.319-9.257-16.634-18.655-23.358-29.505c-2.324-3.746-3.915-8.454-6.558-11.473c-1.674-1.913-4.483-2.966-6.146-4.92 c-1.821-2.142-2.069-4.824-4.92-5.734c-1.096,1.634-0.361,5.098-1.227,6.965c-1.971-7.913-6.362-15.428-14.752-15.573 c-0.156-5.755,4.493-6.703,6.965-9.835c-3.254-3.913-4.038-8.841-5.736-14.75c-4.128-14.359-7.539-29.359-11.066-42.62 c-4.674,1.745-5.913,6.926-8.194,11.065c0.225-5.92,0.502-11.792,3.689-14.755c1.457,0.183,1.617,1.664,2.457,2.46 c0.77-2.792,3.412-5.396,2.048-9.014c-1.058-1.634-4.151-0.872-4.915-0.819C182.414,234.271,184.112,225.289,181.623,219.55z M346.357,462.557c3.543-1.514,6.732-3.377,8.192-6.97C350.698,456.552,345.268,458.007,346.357,462.557z M346.765,454.36 c-2.37,1.313-5.036,2.341-6.554,4.508C343.608,459.071,347.588,455.661,346.765,454.36z M334.064,460.506 c2.32-0.619,4.803-3.015,4.508-4.919C335.878,455.857,331.711,457.778,334.064,460.506z M335.703,451.079 c-3.688-1.165-6.699,1.722-6.97,5.331C332.019,455.595,334.243,453.72,335.703,451.079z M324.226,451.902 c-3.602,0.628-6.296,2.162-7.377,5.323C321.252,458.972,323.506,455.188,324.226,451.902z M318.491,462.557 c1.015,0.058,1.987,0.074,2.05-0.823C319.926,461.084,318.204,461.134,318.491,462.557z M325.049,444.933 c-5.734-0.44-12.592,3.281-9.016,8.196C319.851,451.208,323.718,449.341,325.049,444.933z M296.771,452.722 c3.581,0.503,4.517-3.593,6.97-2.874c1.423,0.898,0.558,4.088,2.865,4.101c5.36-1.09,7.29-8.404,4.097-13.523 C303.479,441.697,296.87,445.673,296.771,452.722z M298.409,442.067c-2.175,1.102-4.491,2.059-5.734,4.096 C295.356,446.047,299.349,443.09,298.409,442.067z M286.94,444.117c0.229,1.09-1.688,2.084-0.416,2.865 C286.865,446.467,289.02,444.441,286.94,444.117z M279.563,453.948c-0.129,0.558-0.586,0.782-0.407,1.639c0.541,0,1.09,0,1.639,0 C280.906,454.514,280.64,453.827,279.563,453.948z M273.417,451.902c-2.071,0.116-2.854,1.518-2.87,3.685 C272.331,455.191,273.957,454.63,273.417,451.902z M232.024,431.001c-2.525-0.111-3.295,0.279-0.407,0.824 c2.751,0.507,7.604,0.773,9.426,0C238.88,431.8,233.291,431.06,232.024,431.001z M244.321,424.447 c-2.144-1.63-6.454-0.449-8.605,0.408C236.957,428.265,243.051,426.751,244.321,424.447z M231.21,455.179 c10.22,5.356,24.292,11.203,38.926,9.424C259.502,459.396,243.688,457.175,231.21,455.179z M216.046,450.671 c0.979,1.344,3.291,1.352,4.915,2.051C223.986,449.798,217.337,448.151,216.046,450.671z M177.525,417.478 c-2.766,0.241-5.776,0.233-6.556,2.462C173.604,420.917,177.417,420.31,177.525,417.478z M169.738,428.132 c0.963,0.873,2.734,1.913,3.279,0C172.593,427.699,170.092,427.288,169.738,428.132z M174.656,393.3 c0.372-1.713-2.891-2.361-3.277-0.818C172.277,392.946,173.055,393.537,174.656,393.3z M179.985,407.231 c-0.02-0.562,0.193-0.898,0.409-1.227c-1.221-1.261-3.69-1.485-5.738-0.819C174.984,407.156,178.266,407.979,179.985,407.231z M180.395,433.463c0.524,0.558,1.934,0.558,2.458,0c0.193-1.289-0.512-1.676-1.229-2.054 C181.256,432.137,180.634,432.606,180.395,433.463z M193.099,386.335c-1.335-3.859-5.688-2.841-8.607-4.097 c-4.691-2.021-8.696-6.845-14.753-6.965c-0.272,0-0.547,0-0.817,0C174.19,381.481,181.162,388.152,193.099,386.335z M171.788,371.177c-3.825-2.599-8.015-4.832-13.523-5.738C160.016,369.834,166.832,371.348,171.788,371.177z M184.491,390.431 c2.873,3.003,6.479,5.273,12.704,4.916C194.802,392.136,189.084,390.077,184.491,390.431z M200.063,408.874 c-4.219-2.924-10.855-7.668-16.391-6.559C186.874,406.491,193.311,409.618,200.063,408.874z M184.491,424.447 c-0.099,0.583-0.674,0.687-0.819,1.223C184.682,426.988,186.202,424.722,184.491,424.447z M193.916,436.74 c0.348,1.563,1.853,1.971,3.279,2.458c0.555-0.948,1.646-1.36,1.229-3.277C197.428,435.322,193.846,434.977,193.916,436.74z M201.703,418.709c-1.269-0.777-5.897-1.646-6.968,0C196.723,419.516,200.628,421.604,201.703,418.709z M202.932,404.773 c0.41-3.048-3.038-3.061-4.508-2.05C198.562,404.773,201.274,404.25,202.932,404.773z M207.439,382.646 c-1.851-2.795-6.992-2.296-10.654-3.277c-2.682-3.368-9.095-4.591-14.752-3.688C188.512,379.997,195.881,383.415,207.439,382.646z M206.62,421.985c1.76,1.519,4.519,2.038,6.966,2.87c0.131-0.965,0.646-1.539,0.409-2.87 C212.802,420.609,207.625,419.898,206.62,421.985z M171.788,355.599c0.41-1.912-0.715-2.287-2.459-2.046 C168.711,355.674,170.755,355.129,171.788,355.599z M181.623,360.519c-1.197-0.304-0.794-2.208-2.459-2.05 C177.654,359.854,180.374,361.962,181.623,360.519z M153.348,363.388c-1.36-3.007-4.425-4.316-6.556-6.558 c3.996-5.789-4.92-8.159-6.557-12.293c-0.019-1.247,0.865-1.593,1.229-2.462c-3.443-2.017-7.419-3.505-9.426-6.961 c1.585-1.147,5.81,0.341,7.375-0.823c-2.482-1.069-5.162-1.938-6.146-4.508c1.437-3.344,7.279-2.279,8.605-5.735 c-7.059-1.559-14.072-5.31-21.72-4.919c0.087,2.919,2.685,3.326,3.688,5.327c-2.267-1.007-4.101-2.458-7.375-2.458 c-0.245,2.021,1.064,2.487,0.821,4.508c-2.235,0.183-3.368-0.731-5.739-0.407c1.69,3.771,6.024,4.902,7.378,9.016 c-1.676,0.424-3.951-0.666-4.508,0c4.326,3.593,10.644,7.381,13.111,11.469c-4.025-0.748-6.329-3.227-10.242-4.096 c3.276,6.487,11.253,7.839,17.21,11.065C140.594,356.854,146.058,362.178,153.348,363.388z M144.332,368.304 c1.713,0.936,5.123,3.908,7.377,1.643C149.809,369.105,146.82,367.193,144.332,368.304z M141.055,366.253 c-1.153-1.867-7.036-2.861-8.604-1.639C135.125,365.384,137.645,367.459,141.055,366.253z M133.678,367.484 c-0.129,0.557-0.582,0.781-0.409,1.643c0.721-0.237,2.407,0.49,2.459-0.412C135.092,368.258,134.873,367.384,133.678,367.484z M128.351,312.982c-1.118-3.851-2.611-8.071-5.736-11.062c-1.683-1.613-3.313-1.58-4.508-3.693 c-3.167-5.572-1.649-13.439-5.737-19.254c-0.967-0.315-2.832-0.811-3.688,0c0.077,2.687,6.313,9.058,2.051,12.293 c-9.424,0.374-13.052-7.128-22.128-5.739c-2.044,5.294,5.182,8.014,3.276,11.886C104.917,301.597,115.27,310.662,128.351,312.982z M98.846,325.275c2.408,1.834,5.889,4.766,9.016,4.508C105.385,328.028,103.106,323.895,98.846,325.275z M94.338,321.591 c-1.063-3.307-2.906-5.835-6.966-6.146C88.198,318.987,92.047,319.512,94.338,321.591z M87.372,332.245 c2.194,1.501,4.373,5.181,6.557,5.327C92.332,335.48,90.386,331.559,87.372,332.245z M90.242,303.967 c0.212-0.607,0.604-1.031,0.819-1.639c-1.051-1.447-3.642-0.657-4.097,0.823C87.77,303.709,89.304,303.543,90.242,303.967z M153.759,320.359c-0.058-3.526-3.975-5.572-6.967-3.685C147.74,319.278,150.597,319.969,153.759,320.359z M115.236,266.682 c0.069-0.678-2.523-0.678-2.457,0C113.341,266.806,115.251,268.532,115.236,266.682z M99.258,265.039c-0.547,0-1.094,0-1.641,0 c-0.563,0.527-0.405,1.784-0.41,2.865c0.749,0.112,2.298,1.48,2.87,0.415C99.063,267.962,100.195,265.467,99.258,265.039z M68.521,264.627c1.358,3.09,6.855,2.861,7.787-0.407C73.976,263.317,70.541,263.945,68.521,264.627z M69.753,253.153 c-1.585-0.079-3.021-0.013-4.101,0.412C65.971,255.353,69.742,255.035,69.753,253.153z M73.439,187.18 c-2.106,0.973-6.498-0.975-8.604,0c1.865,7.383,15.688,3.408,14.753-2.46c-0.794-4.978-13.939-3.745-18.441-3.277 C64.636,183.963,70.182,184.427,73.439,187.18z M57.049,194.965c0.771,1.142,2.89,0.934,4.098,1.639 c0.237-0.854,1.017-1.168,0.819-2.458C60.891,193.578,57.023,193.131,57.049,194.965z M77.949,193.327 c-0.221,0.894-0.994,2.651,0.407,2.869C79.332,195.508,79.128,193.921,77.949,193.327z M89.423,168.739 c-0.108-1.198,0.925-1.256,0.819-2.458c-1.666-0.163-2.857,0.149-2.87,1.638C88.152,168.097,88.401,168.802,89.423,168.739z M89.013,77.767c-1.632,10,7.378,22.097,18.029,18.439c0.497-3.774-1.225-5.329-1.229-8.604c2.718-0.659,4.318,1.951,5.736,1.229 C107.563,81.618,96.96,81.021,89.013,77.767z M84.503,68.342c3.602,0.713,9.255,0.352,10.656-2.459 C92.438,64.065,84.274,63.578,84.503,68.342z M74.668,39.656c0.788-7.959-8.938-12.357-14.75-6.965 c-3.633,3.368-5.211,11.502,0.409,14.343c-0.638-2.096-2.501-2.963-2.048-6.146C62.55,38.446,70.381,42.079,74.668,39.656z M71.803,65.882c1.042-0.595,2.607-0.666,2.458-2.458C73.001,63.551,70.854,64.909,71.803,65.882z M63.195,96.206 c5.11,0.121,8.963-2.761,13.933-2.867c4.302-0.091,8.402,1.189,13.523,0.819C86.994,83.425,69.225,92.798,63.195,96.206z M55.41,115.057c9.669-1.229,23.14-7.591,36.061-6.146c4.874,0.544,9.143,3.287,11.883,5.327c-1.397-1.491-3.052-7.61,0-8.604 c6.725,1.281,6.949,13.987,15.162,12.293c4.184-0.863,5.458-8.979,3.279-13.933c3.127,2.2,4.738,5.916,9.016,6.967 c-0.976-3.942-3.813-6.023-5.736-9.016c1.208-1.522,2.79-2.674,2.457-5.739c-11.727-1.127-22.136,5.203-33.193,7.377 c-8.581,1.69-14.967,3.364-22.535,5.327C66.114,110.385,59.783,111.42,55.41,115.057z M20.988,199.884 c-0.563,0.522-0.714,2.448,0.409,2.458C21.734,202.045,22.497,199.506,20.988,199.884z M35.328,151.12 c-17.969,2.851,1.184,21.961,11.886,17.212c1.355-2.081,0.934-3.988,0.819-6.97c6.235,0.611,10.926-2.426,16.393-1.227 c0.882,1.905-0.786,3.518-1.23,5.325c18.593-1.179,27.799-15.788,47.943-18.029c2.503-0.279,5.356,0.164,8.198,0 c8.483-0.495,17.88-2.067,26.636-3.689c8.591-1.588,16.446-4.747,23.766-6.554c9.187-2.271,23.163-8.271,21.311-20.491 c-0.212-1.391-1.177-2.641-2.05-4.098c-48.834-4.722-85.346,14.422-123.754,22.129c-4.614,0.925-10.224,0.31-13.934,4.096 c1.342,3.302,6.058,3.231,8.194,5.737c-1.068,1.252-3.709,0.932-4.096,2.87c0.904,3.466,6.042,2.694,6.556,6.558 c-8.157,5.75-25.261-1.584-21.309-13.114c-12.325,2.701-30.27,5.385-30.323,19.26c-0.025,6.115,3.62,11.771,7.784,15.162 C15.297,162.387,20.092,143.297,35.328,151.12z M50.492,227.749c0.373-2.775-4.188-4.718-5.736-2.867 C46.266,226.239,48.63,226.74,50.492,227.749z M36.149,233.076c2.898,10.076,3.841,22.113,11.474,27.456 C46.474,248.704,42.277,239.925,36.149,233.076z M53.36,222.422c1.276-5.785-7.211-8.051-7.785-4.099 C45.074,221.765,50.501,221.365,53.36,222.422z M55,211.356c-1.85-2.023-6.493-3.277-9.834-2.458 C46.345,211.799,53.599,216.092,55,211.356z M50.083,193.327c1.851-1.154,3.815-2.198,4.096-4.92 c-2.378-1.78-8.071-2.031-8.604,0.824C45.172,191.389,48.064,192.264,50.083,193.327z M55.41,200.292 c0.179-1.408-0.162-2.295-0.41-3.279c-2.102-0.052-3.083,1.015-3.278,2.871C52.742,200.228,53.917,200.419,55.41,200.292z M26.725,198.244c-0.316-1.05-0.41-2.323-1.229-2.868C24.477,196.479,24.438,198.46,26.725,198.244z M30.823,170.38 c-1.839-0.717-4.561,0.048-5.327,1.638c0.86,0.776,2.098,1.181,3.278,1.637C29.188,172.299,31.041,172.374,30.823,170.38z M35.328,223.241c-1.06-2.354-1.193-5.635-3.276-6.965C26.441,217.074,32,225.135,35.328,223.241z M43.115,267.496 c4.001,9.673,8.224,20.128,16.803,24.586c-6.415-7.137-7.929-18.946-12.295-27.455c-1.51-2.936-3.919-5.219-5.327-8.193 c-3.313-7.003-4.84-15.174-11.473-18.441C33.437,248.298,39.036,257.624,43.115,267.496z M155.808,421.167 c-2.48-8.446-9.137-12.722-18.441-14.343c-2.3-5.485-8.938-6.629-10.244-13.112c-0.212-1.331,2.538-1.801,1.641-2.458 c-12.472,2.362-12.912-10.857-18.851-16.393c-14.987,0.271-12.199-18.272-20.489-27.862c-2.368-2.744-4.716-3.377-7.377-6.146 c-4.095-12.691-14.782-19.129-20.899-30.323c-5.433-9.947-6.576-21.167-15.571-28.278c7.117,24.095,22.364,44.463,36.061,64.748 c10.964,16.23,18.42,31.688,30.733,44.663c4.184,4.403,8.908,7.352,13.934,11.473C134.854,410.146,140.741,423.15,155.808,421.167z M154.167,393.3c-0.441-1.755-3.602-2.939-5.327-2.046C150.429,392.128,152.175,392.835,154.167,393.3z M169.329,382.646 c-2.776-3.235-8.588-4.467-13.932-6.555c-6.629-2.595-16.087-5.052-20.898-2.05c0.484,4.021,3.687,5.327,5.736,7.785 c5.693,0.877,8.951,3.655,14.341,4.096C160.929,386.447,166.862,386.164,169.329,382.646z M364.796,476.08 c-12.4-5.655-30.586,0.707-43.848-2.462c-2.503-0.599-4.716-2.32-6.965-2.458c-2.237-0.137-4.841,1.044-6.966,1.231 c-11.357,1.01-21.725-0.112-32.37-1.643c-7.469-1.073-15.424-1.493-22.132-3.277c-6.425-1.705-13.07-5.639-19.67-8.196 c-6.697-2.591-13.669-5.173-20.079-7.785c-12.646-5.152-26.086-14.068-39.34-17.619c8.941,9.498,24.334,12.55,34.834,20.489 c-14.838-4.15-26.034-11.939-39.34-17.62c10.367,9.282,24.833,14.904,39.34,20.896c14.447,5.972,30.146,11.024,47.122,13.523 C289.103,476.126,328.654,483.503,364.796,476.08z M375.45,474.849c-2.104,0.084-4.725-0.354-4.915,1.639 C372.318,478.018,375.317,477.859,375.45,474.849z M397.578,426.493c0.582,3.028,4.978,2.125,4.512-1.23 C399.856,424.946,398.888,425.895,397.578,426.493z M431.59,447.802c-11.016-0.266-24.605-4.071-36.063-3.685 c-4.396,0.146-9.739,1.198-11.062,5.73c3.381,1.372,7.003,0.549,11.062,0.416C408.818,449.814,425.058,455.786,431.59,447.802z M442.656,446.982c-1.917-0.004-2.482,1.348-2.869,2.865c0.527,0.565,1.779,0.412,2.869,0.416 C442.461,448.45,443.218,448.222,442.656,446.982z M466.834,445.345c-2-0.304-2.745,2.183-2.05,3.28 c1.289,0.195,1.601-0.586,2.461-0.823C467.541,446.55,466.538,446.596,466.834,445.345z M500.843,447.802 c-8.389-0.894-18.186-0.341-25.813,0.823C479.521,452.854,495.652,450.155,500.843,447.802z M106.633,198.651 c4.042,2.246,7.772,6.978,13.114,6.558c-1.443-1.971-3.489-3.341-4.92-5.325c1.522-0.12,2.815-0.463,3.279-1.64 c-4.984-3.487-11.376-7.746-13.932-12.297C105.861,189.216,108.443,194.424,106.633,198.651z M159.086,201.933 c-0.877-0.898-0.482-3.073-1.641-3.688C157.184,200.028,158.338,202.521,159.086,201.933z M121.385,237.586 c0.628,6.747,4.94,9.806,5.327,16.8c-4.79-5.454-7.464-13.027-10.654-20.083c-0.313,8.535,2.267,13.823,4.508,19.674 c1.725,4.496,3.342,9.773,7.785,11.063c2.075-0.387,1.959-2.966,4.101-3.281c2.278,0.328,3.464,3.904,4.915,3.692 c-1.094-1.23-1.435-3.21-1.639-5.327c0.396-1.518,2.566-1.26,3.277-2.462C134.884,249.219,128.977,242.557,121.385,237.586z"> </path> </g>
<!--TensorFlow-->
<symbol id="TensorFlow" viewBox="0 0 30.31081 32.499828"> <defs id="defs2" /> <metadata id="metadata5"> </metadata> <g transform="translate(-77.942529,-177.00005)" id="layer1"> <g id="g4550"> <path style={{ fill: "#e55b2d", fillOpacity: 1 }} d="m 360.04883,687.87305 v 18.89843 l 32.73047,18.89844 v -18.89844 z m -65.46289,18.89843 v 18.89844 l 16.36523,9.44727 V 716.2207 Z m 49.0957,9.44922 -16.36523,9.44922 v 56.69141 l 16.36523,9.44922 v -37.79493 l 16.36719,9.44922 v -18.89843 l -16.36719,-9.44922 z" transform="scale(0.26458333)" id="path4508" /> <path style={{ fill: "#ed8e24", fillOpacity: 1 }} d="m 360.04883,687.87305 -49.09766,28.34765 v 18.89649 l 32.73047,-18.89649 v 18.89649 l 16.36719,-9.44727 z m 49.09765,9.44922 -16.36718,9.44921 v 18.89844 l 16.36718,-9.44922 z m -32.73242,37.79492 -16.36523,9.44922 v 18.89843 l 16.36523,-9.44922 z m -16.36523,28.34765 -16.36719,-9.44922 v 37.79493 l 16.36719,-9.44922 z" transform="scale(0.26458333)" id="path4491" /> <path style={{ fill: "#f8bf3c", fillOpacity: 1 }} d="m 360.04883,668.97656 -65.46289,37.79492 16.36523,9.44922 49.09766,-28.34765 32.73047,18.89843 16.36718,-9.44921 z m 0,56.69336 -16.36719,9.44727 16.36719,9.44922 16.36523,-9.44922 z" transform="scale(0.26458333)" id="path4506" /> </g> </g>
<!--SQLAlchemy-->
<symbol id="SQLAlchemy" viewBox="0 32 128 64"><path fill="#333" d="M15.676 69.912c-.671-.107-2.39-.537-3.813-.926L9.27 68.26l1.33-2.444 1.329-2.444-1.074-1.33c-1.518-1.88-3.478-6.002-3.491-7.33-.014-3.103 4.014-7.601 8.956-10.018 3.397-1.665 6.096-1.705 9.48-.12l2.551 1.194.739-1.06c.402-.578.738-1.343.738-1.679s.336-.631.739-.631.738.107.738.228c0 .296-2.967 7.788-3.155 7.976-.081.08-.887-.295-1.8-.832-2.578-1.518-5.814-2.525-8.325-2.592-5.841-.148-7.869 5.56-3.746 10.554l1.45 1.76 3.961-3.21c4.445-3.585 4.955-3.666 8.42-1.275 3.893 2.685 3.96 6.767.2 11.037-3.33 3.8-6.753 4.848-12.635 3.867zm9.964-4.095c1.933-1.517 1.799-4.324-.296-6.553-2.632-2.793-3.45-2.672-8.083 1.195-4.606 3.84-4.633 3.693.873 5.452 3.638 1.181 5.921 1.141 7.506-.094zM63.05 80.614c-1.317-.483-4.862-1.947-7.896-3.263-8.191-3.572-9.346-3.639-11.79-.671-.564.685-1.181 1.114-1.356.94-.524-.524 1.034-3.035 2.914-4.686 1.53-1.343 2.04-1.531 3.733-1.343 1.074.12 4.646 1.37 7.935 2.766 7.426 3.155 9.601 3.827 12.435 3.827 3.45 0 5.223-2.417 4.135-5.626-.268-.806-.188-1.075.35-1.075 1.006 0 1.517 3.76.792 5.922-.31.926-1.209 2.242-2.001 2.9-1.182.994-1.934 1.209-4.15 1.195-1.49-.013-3.786-.402-5.102-.886zm-19.135-11.48c-3.048-1.424-5.801-4.136-7.386-7.305-2.537-5.076-1.759-8.325 3.049-12.716 4.041-3.693 7.345-5.13 11.79-5.13 3.208 0 3.893.175 5.974 1.45 4.928 3.049 6.15 8.863 3.183 15.2-3.478 7.44-10.823 11.186-16.61 8.5zm10.205-3.532c2.282-1.128 3.854-6.338 3.209-10.662-.806-5.33-8.016-8.97-13.307-6.713-5.438 2.323-5.519 8.513-.174 14.085 3.732 3.908 6.942 4.928 10.272 3.29zM64.473 70.114c0-.229.845-.631 1.893-.887l1.893-.47.403-6.82c.443-7.547.12-14.973-.698-15.966-.296-.35-1.195-.78-2.014-.967-3.33-.739-1.115-1.249 5.344-1.249 6.459 0 8.513.47 5.438 1.249-2.645.658-2.659.698-2.659 11.467 0 5.975.215 10.474.524 11.051.43.806 1.074.98 3.545.98 5.102 0 6.861-1.208 8.245-5.68.416-1.342 1.49-1.1 1.114.256-.175.63-.456 2.55-.631 4.296l-.322 3.156H75.51c-6.07 0-11.037-.188-11.037-.416z" /><path fill="#ca2727" d="M89.542 69.791c0-.402.39-.805 1.034-1.114.86-.403 1.423-1.249 3.464-5.237 3.236-6.31 8.339-17.147 8.822-18.772.376-1.235.457-1.302 1.853-1.463.806-.094 1.477-.148 1.49-.121.014.027 1.129 2.47 2.485 5.438 1.343 2.967 4.042 8.607 6.002 12.528 3.277 6.593 3.64 7.184 4.74 7.72.672.323 1.195.82 1.195 1.115 0 .47-.577.524-5.545.524-4.982 0-5.546-.054-5.546-.537 0-.322.43-.671 1.114-.9.632-.201 1.115-.577 1.115-.859 0-.269-.658-2.041-1.464-3.934l-1.463-3.451H97.746l-1.06 2.336c-1.988 4.378-2.028 5.412-.175 5.908.927.255 1.182.457 1.074.873-.12.484-.604.55-4.095.55-3.747.028-3.948 0-3.948-.604zm18.181-10.863c.188-.335-3.988-9.453-4.377-9.547-.282-.08-4.606 8.836-4.606 9.507 0 .336 8.782.376 8.983.04z" />
</svg>
