<svg xmlns="http://www.w3.org/2000/svg" xmlns:xlink="https://www.w3.org/1999/xlink" style="display: none;">
<!--Monitor Icon-->
<symbol id="monitor" viewBox="0 0 24 24"  fill="none"  stroke="currentColor"  stroke-width="2"  stroke-linecap="round"  stroke-linejoin="round"  class="icon icon-tabler icons-tabler-outline icon-tabler-device-desktop"><path stroke="none" d="M0 0h24v24H0z" fill="none"/><path d="M3 5a1 1 0 0 1 1 -1h16a1 1 0 0 1 1 1v10a1 1 0 0 1 -1 1h-16a1 1 0 0 1 -1 -1v-10z" /><path d="M7 20h10" /><path d="M9 16v4" /><path d="M15 16v4" />
<!--Moon Icon-->
<symbol id="moon" viewBox="0 0 24 24"  fill="none"  stroke="currentColor"  stroke-width="2"  stroke-linecap="round"  stroke-linejoin="round"  class="icon icon-tabler icons-tabler-outline icon-tabler-moon-stars"><path stroke="none" d="M0 0h24v24H0z" fill="none"/><path d="M12 3c.132 0 .263 0 .393 0a7.5 7.5 0 0 0 7.92 12.446a9 9 0 1 1 -8.313 -12.454z" /><path d="M17 4a2 2 0 0 0 2 2a2 2 0 0 0 -2 2a2 2 0 0 0 -2 -2a2 2 0 0 0 2 -2" /><path d="M19 11h2m-1 -1v2" />
<!--Sun Icon-->
<symbol id="sun" viewBox="0 0 24 24"  fill="none"  stroke="currentColor"  stroke-width="2"  stroke-linecap="round"  stroke-linejoin="round"  class="icon icon-tabler icons-tabler-outline icon-tabler-sun"><path stroke="none" d="M0 0h24v24H0z" fill="none"/><path d="M12 12m-4 0a4 4 0 1 0 8 0a4 4 0 1 0 -8 0" /><path d="M3 12h1m8 -9v1m8 8h1m-9 8v1m-6.4 -15.4l.7 .7m12.1 -.7l-.7 .7m0 11.4l.7 .7m-12.1 -.7l-.7 .7" />
<!--Home Icon-->
<symbol id="home" viewBox="0 0 576 512"><!--!Font Awesome Free 6.5.2 by @fontawesome - https://fontawesome.com License - https://fontawesome.com/license/free Copyright 2024 Fonticons, Inc.--><path d="M575.8 255.5c0 18-15 32.1-32 32.1h-32l.7 160.2c0 2.7-.2 5.4-.5 8.1V472c0 22.1-17.9 40-40 40H456c-1.1 0-2.2 0-3.3-.1c-1.4 .1-2.8 .1-4.2 .1H416 392c-22.1 0-40-17.9-40-40V448 384c0-17.7-14.3-32-32-32H256c-17.7 0-32 14.3-32 32v64 24c0 22.1-17.9 40-40 40H160 128.1c-1.5 0-3-.1-4.5-.2c-1.2 .1-2.4 .2-3.6 .2H104c-22.1 0-40-17.9-40-40V360c0-.9 0-1.9 .1-2.8V287.6H32c-18 0-32-14-32-32.1c0-9 3-17 10-24L266.4 8c7-7 15-8 22-8s15 2 21 7L564.8 231.5c8 7 12 15 11 24z"/>
<!--Project Icon-->
<symbol id="project" viewBox="0 0 640 512"><!--!Font Awesome Free 6.5.2 by @fontawesome - https://fontawesome.com License - https://fontawesome.com/license/free Copyright 2024 Fonticons, Inc.--><path d="M392.8 1.2c-17-4.9-34.7 5-39.6 22l-128 448c-4.9 17 5 34.7 22 39.6s34.7-5 39.6-22l128-448c4.9-17-5-34.7-22-39.6zm80.6 120.1c-12.5 12.5-12.5 32.8 0 45.3L562.7 256l-89.4 89.4c-12.5 12.5-12.5 32.8 0 45.3s32.8 12.5 45.3 0l112-112c12.5-12.5 12.5-32.8 0-45.3l-112-112c-12.5-12.5-32.8-12.5-45.3 0zm-306.7 0c-12.5-12.5-32.8-12.5-45.3 0l-112 112c-12.5 12.5-12.5 32.8 0 45.3l112 112c12.5 12.5 32.8 12.5 45.3 0s12.5-32.8 0-45.3L77.3 256l89.4-89.4c12.5-12.5 12.5-32.8 0-45.3z"/>
<!--About Icon-->
<symbol id="about" viewBox="0 0 576 512"><!--!Font Awesome Free 6.5.2 by @fontawesome - https://fontawesome.com License - https://fontawesome.com/license/free Copyright 2024 Fonticons, Inc.--><path d="M64 32C28.7 32 0 60.7 0 96V416c0 35.3 28.7 64 64 64H512c35.3 0 64-28.7 64-64V96c0-35.3-28.7-64-64-64H64zm80 256h64c44.2 0 80 35.8 80 80c0 8.8-7.2 16-16 16H80c-8.8 0-16-7.2-16-16c0-44.2 35.8-80 80-80zm-32-96a64 64 0 1 1 128 0 64 64 0 1 1 -128 0zm256-32H496c8.8 0 16 7.2 16 16s-7.2 16-16 16H368c-8.8 0-16-7.2-16-16s7.2-16 16-16zm0 64H496c8.8 0 16 7.2 16 16s-7.2 16-16 16H368c-8.8 0-16-7.2-16-16s7.2-16 16-16zm0 64H496c8.8 0 16 7.2 16 16s-7.2 16-16 16H368c-8.8 0-16-7.2-16-16s7.2-16 16-16z"/>
<!--Skills Icon-->
<symbol id="skills" viewBox="0 0 576 512"><!--!Font Awesome Free 6.5.2 by @fontawesome - https://fontawesome.com License - https://fontawesome.com/license/free Copyright 2024 Fonticons, Inc.--><path d="M0 80C0 53.5 21.5 32 48 32h96c26.5 0 48 21.5 48 48V96H384V80c0-26.5 21.5-48 48-48h96c26.5 0 48 21.5 48 48v96c0 26.5-21.5 48-48 48H432c-26.5 0-48-21.5-48-48V160H192v16c0 1.7-.1 3.4-.3 5L272 288h96c26.5 0 48 21.5 48 48v96c0 26.5-21.5 48-48 48H272c-26.5 0-48-21.5-48-48V336c0-1.7 .1-3.4 .3-5L144 224H48c-26.5 0-48-21.5-48-48V80z"/>
<!--Contact Icon-->
<symbol id="contact" viewBox="0 0 512 512"><!--!Font Awesome Free 6.5.2 by @fontawesome - https://fontawesome.com License - https://fontawesome.com/license/free Copyright 2024 Fonticons, Inc.--><path d="M96 0C60.7 0 32 28.7 32 64V448c0 35.3 28.7 64 64 64H384c35.3 0 64-28.7 64-64V64c0-35.3-28.7-64-64-64H96zM208 288h64c44.2 0 80 35.8 80 80c0 8.8-7.2 16-16 16H144c-8.8 0-16-7.2-16-16c0-44.2 35.8-80 80-80zm-32-96a64 64 0 1 1 128 0 64 64 0 1 1 -128 0zM512 80c0-8.8-7.2-16-16-16s-16 7.2-16 16v64c0 8.8 7.2 16 16 16s16-7.2 16-16V80zM496 192c-8.8 0-16 7.2-16 16v64c0 8.8 7.2 16 16 16s16-7.2 16-16V208c0-8.8-7.2-16-16-16zm16 144c0-8.8-7.2-16-16-16s-16 7.2-16 16v64c0 8.8 7.2 16 16 16s16-7.2 16-16V336z"/>
</svg>
